<svg xmlns="http://www.w3.org/2000/svg" width="20" height="20" fill="none"><path fill="#fff" d="M11.76 12.67c.64-.2 1.45 1.36 2.32 1.96.66.46 1.15.36 1.15.36l2.32-.03s1.21-.08.64-1.04c-.05-.08-.34-.71-1.73-2.01-1.45-1.37-1.25-1.15.5-3.5 1.06-1.44 1.49-2.31 1.36-2.69-.13-.36-.91-.26-.91-.26l-2.61.02c-.26 0-.47.07-.57.34 0 0-.42 1.1-.96 2.05-1.17 2-1.63 2.1-1.82 1.98-.44-.3-.33-1.16-.33-1.78 0-1.93.29-2.74-.56-2.95A4.4 4.4 0 0 0 9.34 5C8.4 5 7.62 5 7.17 5.22c-.3.15-.52.48-.38.5.17.02.56.1.77.39.26.36.26 1.19.26 1.19s.15 2.27-.36 2.56c-.36.19-.84-.2-1.87-2.02-.53-.92-.93-1.94-.93-1.94s-.08-.2-.22-.3c-.16-.12-.4-.16-.4-.16l-2.47.02s-.38 0-.51.17c-.12.15-.01.45-.01.45s1.94 4.58 4.13 6.9c2.02 2.12 4.3 1.98 4.3 1.98h1.04s.31-.04.47-.21c.15-.16.15-.46.15-.46s-.02-1.4.62-1.62Z"/></svg>