<svg xmlns="http://www.w3.org/2000/svg" width="24" height="24" fill="none"><path fill="#FEFAFA" d="m11.8.26-.15.03A11.3 11.3 0 0 0 6.5 1.58 11.09 11.09 0 0 0 4.4 3l-.17.14a11.58 11.58 0 0 0-2.37 2.97 11.17 11.17 0 0 0-1.47 5.58 11.48 11.48 0 0 0 3.84 8.55l.17.15a11.09 11.09 0 0 0 7.25 2.71c.1.04.22.04.33 0a11.3 11.3 0 0 0 5.15-1.3 11.1 11.1 0 0 0 2.1-1.41l.17-.15a10.28 10.28 0 0 0 2.37-2.96 11.17 11.17 0 0 0 1.47-5.59 11.49 11.49 0 0 0-2.02-6.49 11.58 11.58 0 0 0-1.83-2.06L19.23 3A11.09 11.09 0 0 0 11.98.29a.52.52 0 0 0-.17-.03Zm-3.89.7H7.9h.01Zm7.8 0h.02-.02Zm-4.42.4v2.09c-.5.03-1 .06-1.46.17l-.36.11-.71-1.95.57-.17c.63-.16 1.3-.2 1.96-.24Zm1.04 0c.67.04 1.34.1 1.97.25l.57.17-.71 1.95c-.12-.03-.24-.08-.36-.1-.47-.12-.97-.15-1.47-.18V1.37Zm-4.54.78.7 1.95c-.18.08-.36.15-.54.25-.28.14-.53.35-.79.53-.1.01-.2.06-.28.13l-1.3-1.56a10.07 10.07 0 0 1 1.4-.94c.27-.14.54-.24.8-.36Zm8.05 0c.27.12.54.22.8.36.5.26.96.6 1.42.94L16.76 5a.52.52 0 0 0-.3-.13c-.26-.18-.5-.39-.78-.53-.18-.1-.37-.17-.55-.25l.71-1.95ZM4.76 4.1 6.1 5.7c-.4.39-.8.8-1.13 1.27l-.08.13-1.8-1.04.17-.27c.43-.62.95-1.18 1.5-1.7Zm14.1 0c.56.51 1.07 1.07 1.5 1.7.07.08.12.17.18.26l-1.8 1.04-.08-.13a8.32 8.32 0 0 0-1.14-1.27l1.34-1.6Zm-7.56.38v2.05c-.76.07-1.47.32-2.1.68L8 5.55c.15-.1.28-.21.44-.3a6.58 6.58 0 0 1 1.63-.62c.4-.1.81-.12 1.22-.15Zm1.03 0c.42.03.83.06 1.23.15a6.38 6.38 0 0 1 1.63.62c.16.09.3.2.44.3l-1.2 1.66a5.15 5.15 0 0 0-2.1-.68V4.48Zm-5.2 1.66 1.23 1.69c-.55.49-1 1.1-1.3 1.77L5.1 8.96a6.27 6.27 0 0 1 .74-1.4c.33-.48.73-.92 1.16-1.31l.08-.07a.52.52 0 0 0 .07-.04Zm9.36 0 .07.04.07.07a6.3 6.3 0 0 1 1.5 1.86c.16.27.3.56.41.85l-1.97.64a5.22 5.22 0 0 0-1.3-1.77l1.22-1.7Zm-13.9.83 1.8 1.04c-.11.24-.25.48-.34.73-.03.07-.04.15-.06.22a.52.52 0 0 0-.1.38 7.6 7.6 0 0 0-.12.4l-2.05-.36c.2-.85.49-1.65.88-2.41Zm18.44 0c.4.76.69 1.56.88 2.41l-2.05.36a7.56 7.56 0 0 0-.11-.4.52.52 0 0 0-.1-.37l-.07-.23c-.1-.25-.22-.49-.35-.73l1.8-1.04Zm-9.28.57h.13a4.14 4.14 0 0 1 2.28 7.59 4.14 4.14 0 0 1-6.26-2.04 4.17 4.17 0 0 1-.08-2.56 4.14 4.14 0 0 1 3.93-2.99Zm7.1 2.41c.03.15.09.28.12.43 0 .04 0 .08.02.12l.04.31a7.5 7.5 0 0 1 0 1.76l-.04.32a.52.52 0 0 0-.02.12c-.03.15-.09.28-.12.42l-1.96-.63a5.18 5.18 0 0 0 0-2.2l1.96-.65Zm-14.07 0 1.96.64a5.18 5.18 0 0 0 0 2.2l-1.96.64c-.03-.14-.1-.28-.12-.42a.52.52 0 0 0-.02-.12l-.04-.31a7.5 7.5 0 0 1 0-1.77c0-.1.02-.2.04-.32a.52.52 0 0 0 .02-.11c.03-.15.09-.28.12-.43Zm-3.27.45 2.05.36a8.45 8.45 0 0 0 0 1.86L1.51 13v-.04a10.43 10.43 0 0 1 0-2.52v-.03Zm20.61 0v.04a10.43 10.43 0 0 1 0 2.5V13l-2.05-.37a8.46 8.46 0 0 0 0-1.86l2.05-.36ZM3.77 13.64l.11.4c-.02.14.02.28.1.39l.07.21c.1.26.23.5.35.74l-1.8 1.04c-.4-.76-.69-1.57-.88-2.42l2.05-.36Zm16.1 0 2.04.36c-.2.85-.49 1.66-.88 2.42l-1.8-1.04c.13-.24.26-.48.35-.73l.07-.23c.08-.1.11-.24.1-.37l.11-.4Zm-12.8.14c.3.69.74 1.29 1.3 1.78l-1.23 1.69a.53.53 0 0 0-.07-.04L7 17.14a7.34 7.34 0 0 1-1.16-1.32 6.33 6.33 0 0 1-.34-.54 6.26 6.26 0 0 1-.4-.85l1.97-.65Zm9.5 0 1.97.65a6.68 6.68 0 0 1-.74 1.4 7.34 7.34 0 0 1-1.17 1.31l-.07.06a.52.52 0 0 0-.07.05l-1.22-1.69c.55-.5 1-1.1 1.3-1.78Zm-7.37 2.4c.63.36 1.34.6 2.1.68v2.04c-.42-.03-.84-.05-1.23-.14a6.38 6.38 0 0 1-1.63-.63c-.16-.08-.3-.2-.45-.3l1.21-1.66Zm5.23 0 1.2 1.65c-.15.1-.28.22-.44.3a6.59 6.59 0 0 1-1.63.63c-.4.1-.81.11-1.23.14v-2.04a5.15 5.15 0 0 0 2.1-.69Zm-9.54.1.08.14c.33.47.72.88 1.13 1.27l-1.34 1.6a10.65 10.65 0 0 1-1.5-1.7l-.17-.26 1.8-1.04Zm13.84 0 1.8 1.05-.16.26c-.44.63-.95 1.18-1.5 1.7l-1.35-1.6c.41-.39.8-.8 1.13-1.27l.08-.13Zm-11.85 2.1c.08.08.18.13.28.14.26.18.51.38.8.53.17.1.35.16.54.24l-.71 1.95c-.27-.11-.54-.21-.8-.35-.5-.26-.97-.6-1.42-.95l1.3-1.55Zm9.87 0 1.3 1.56a10.07 10.07 0 0 1-1.41.95c-.26.14-.53.24-.8.35l-.7-1.95c.17-.08.36-.14.54-.24.28-.15.52-.35.79-.53.1-.01.2-.06.28-.13Zm-7.28 1.28c.12.03.24.08.36.1.47.12.97.15 1.46.18v2.08c-.66-.04-1.33-.08-1.96-.24-.2-.05-.38-.12-.57-.18l.71-1.94Zm4.69 0 .7 1.94c-.18.06-.36.13-.56.18-.63.16-1.3.2-1.97.24v-2.08c.5-.03 1-.06 1.47-.18.12-.02.24-.07.36-.1ZM7.9 22.42l.01.01H7.9Zm7.83 0-.02.01h.02Z"/></svg>