<svg width="16" height="16" fill="none" xmlns="http://www.w3.org/2000/svg"><path fill-rule="evenodd" clip-rule="evenodd" d="M8 16A8 8 0 1 1 8 0a8 8 0 0 1 0 16Zm5.382-4.273a6.545 6.545 0 1 0-10.763 0C3.437 10.646 5.36 10.182 8 10.182s4.563.464 5.382 1.545Zm-1.044 1.175c-.213-.766-1.742-1.266-4.338-1.266s-4.125.5-4.338 1.266A6.52 6.52 0 0 0 8 14.546a6.52 6.52 0 0 0 4.338-1.644ZM8 3.636c-1.76 0-2.91 1.277-2.91 2.91 0 2.492 1.282 3.636 2.91 3.636 1.613 0 2.91-1.106 2.91-3.491 0-1.657-1.154-3.055-2.91-3.055Zm-1.455 2.91c0 1.65.596 2.181 1.455 2.181.857 0 1.455-.51 1.455-2.036 0-.909-.57-1.6-1.455-1.6-.92 0-1.455.593-1.455 1.454Z" fill="#fff"/></svg>